<svg width="332" height="156" viewBox="0 0 332 156" fill="none" xmlns="http://www.w3.org/2000/svg">
  <path d="M0 33.5L54.5 65V127L0 95V33.5Z" fill="#B3B5B8"/>
  <path d="M54.5 65L114.5 27.5L168 59L54.5 127V65Z" fill="#B3B5B8"/>
  <path d="M168 59L221.5 27.5L331.5 95L277 127L168 59Z" fill="#B3B5B8"/>
  <path d="M0 33.5L27.5 0L54.5 33.5L27.5 49.5L0 33.5Z" fill="#B3B5B8"/>
  <path d="M0 33.5L27.5 49.5L0 65V33.5Z" fill="#F5333F"/>
  <path d="M114.5 90.5L168 122V59L114.5 90.5Z" fill="#F5333F"/>
  <path d="M221.5 90.5L168 122V59L221.5 90.5Z" fill="#F5333F"/>
  <path d="M277 127V95L331.5 63V95L277 127Z" fill="#B3B5B8"/>
  <path d="M277 127L221.5 95V59L277 91V127Z" fill="#8E9094"/>
  <path d="M54.5 127L0 95L54.5 65V127Z" fill="#8E9094"/>
  <path d="M168 59V122L221.5 90.5V59H168Z" fill="#F5333F" fill-opacity="0.95"/>
  <path d="M306.5 7.5C306.5 3.6 309.6 0.5 313.5 0.5H319C322.9 0.5 326 3.6 326 7.5V13C326 16.9 322.9 20 319 20H313.5C309.6 20 306.5 16.9 306.5 13V7.5Z" stroke="#3B3D40"/>
  <path d="M313 15V5.5H317.2C319.2 5.5 320.4 6.5 320.4 8.2C320.4 9.5 319.7 10.4 318.5 10.8L320.7 15H318.8L316.8 11.1H314.6V15H313ZM314.6 9.8H317.1C318.2 9.8 318.8 9.2 318.8 8.2C318.8 7.2 318.2 6.7 317.1 6.7H314.6V9.8Z" fill="#3B3D40"/>
  <path d="M7.2 147.2H13.2L18.7 132H19.1L24.6 147.2H30.6V124.8H24.9L19.1 140.9L13.3 124.8H7.2V147.2Z" fill="#2F3133"/>
  <path d="M36 147.2H52.2V142.3H41.9V138.1H50.9V133.6H41.9V129.7H51.8V124.8H36V147.2Z" fill="#2F3133"/>
  <path d="M55.8 147.2H61.7V134.8L70.8 147.2H75.9V124.8H70V137.1L60.9 124.8H55.8V147.2Z" fill="#2F3133"/>
  <path d="M80.2 147.2H86.1V129.8H92.8V124.8H73.5V129.8H80.2V147.2Z" fill="#2F3133"/>
  <path d="M95.3 147.2H101.2V124.8H95.3V147.2Z" fill="#2F3133"/>
  <path d="M105.5 147.2H111.4V139.3H113.9L118.3 147.2H124.9L119.7 138.3C122.4 137.3 124 135.1 124 132.1C124 127.7 120.8 124.8 115.8 124.8H105.5V147.2ZM111.4 134.8V129.4H115C117.1 129.4 118.1 130.3 118.1 132.1C118.1 133.8 117.1 134.8 115 134.8H111.4Z" fill="#2F3133"/>
  <path d="M127.8 147.2H144V142.3H133.7V138.1H142.7V133.6H133.7V129.7H143.6V124.8H127.8V147.2Z" fill="#2F3133"/>
  <path d="M148.3 147.2H154.2V129.8H160.9V124.8H141.6V129.8H148.3V147.2Z" fill="#2F3133"/>
  <path d="M164.2 147.2H180.4V142.3H169.9V124.8H164.2V147.2Z" fill="#2F3133"/>
  <path d="M183.6 147.2H199.8V142.3H189.5V138.1H198.5V133.6H189.5V129.7H199.4V124.8H183.6V147.2Z" fill="#2F3133"/>
  <path d="M203.4 147.2H209.3V139.3H211.8L216.2 147.2H222.8L217.6 138.3C220.3 137.3 221.9 135.1 221.9 132.1C221.9 127.7 218.7 124.8 213.7 124.8H203.4V147.2ZM209.3 134.8V129.4H212.9C215 129.4 216 130.3 216 132.1C216 133.8 215 134.8 212.9 134.8H209.3Z" fill="#2F3133"/>
  <path d="M225.7 147.2H231.6V134.8L240.7 147.2H245.8V124.8H239.9V137.1L230.8 124.8H225.7V147.2Z" fill="#2F3133"/>
  <path d="M250 147.2H255.9V124.8H250V147.2Z" fill="#2F3133"/>
  <path d="M260.2 147.2H266.1V134.8L275.2 147.2H280.3V124.8H274.4V137.1L265.3 124.8H260.2V147.2Z" fill="#2F3133"/>
  <path d="M284.5 147.2H290.4V132H290.8L296.4 147.2H299.9L305.5 132H305.9V147.2H311.8V124.8H303.8L298.2 140.1L292.5 124.8H284.5V147.2Z" fill="#2F3133"/>
</svg>
